# xmcd CD database file
#
# Track frame offsets:
#	150
#	22005
#	39067
#	61050
#
# Disc length: 1038 seconds
#
# Revision: 0
# Processed by: cddbd v1.5.1PL0 Copyright (c) Steve Scherf et al.
# Submitted via: CDex 1.40Beta9
#
DISCID=24040c04
DTITLE=Folder - パラシューター
DYEAR=1997
DGENRE=Pop
TTITLE0=パラシューター
TTITLE1=ごめんね朝寝坊
TTITLE2=パラシューター (Original Karaoke)
TTITLE3=ごめんね朝寝坊 (Original Karaoke)
EXTD=YEAR: 1997 ID3G: 13
EXTT0=
EXTT1=
EXTT2=
EXTT3=
PLAYORDER=
